<?xml version="1.0" encoding="iso-8859-1"?>
<!-- Generator: Adobe Illustrator 17.1.0, SVG Export Plug-In . SVG Version: 6.00 Build 0)  -->
<!DOCTYPE svg PUBLIC "-//W3C//DTD SVG 1.1//EN" "http://www.w3.org/Graphics/SVG/1.1/DTD/svg11.dtd">
<svg xmlns="http://www.w3.org/2000/svg" xmlns:xlink="http://www.w3.org/1999/xlink" version="1.1" id="Capa_1" x="0px" y="0px" viewBox="0 0 291.88 291.88" style="enable-background:new 0 0 291.88 291.88;" xml:space="preserve" width="512px" height="512px">
<path d="M261.795,125.75l-0.862,0.318c-2.135,1.052-4.764,1.978-6.764,2.794v97.779c0,4.556-3.171,8.097-7.727,8.097h-1.015  c-4.556,0-8.258-3.541-8.258-8.097v-93.755c-3,0.21-4.396,0.322-6.594,0.322c-14.84,0-29.58-4.776-41.735-13.918l-39.004,26.031  c3.267,8.171,4.611,17.094,3.718,26.117c-1.648,16.646-10.566,31.514-24.484,40.791l-8.132,5.425l92.561,66.533l-0.591,0.824  c-5.319,7.399-15.628,9.086-23.028,3.767L25.097,170.325c-3.7-2.659-4.543-7.814-1.883-11.514l0.592-0.824  c2.659-3.7,7.814-4.543,11.514-1.884l61.035,43.873c1.122-2.01,2.714-3.796,4.761-5.161l11.324-7.55  c6.409-4.273,10.521-11.121,11.28-18.787c0.76-7.666-1.93-15.188-7.376-20.635c-0.066-0.066-0.122-0.139-0.187-0.207  c-1.413-1.255-2.691-2.708-3.788-4.354c-6.894-10.339-4.1-24.309,6.24-31.201l33.782-22.522c-9.694-3.255-20.515-2.68-30.108,2.115  c-7.407,3.707-16.42,0.702-20.124-6.708c-3.642-7.282-0.792-16.1,6.342-19.917L65.213,14.26c-2.956-3.468-2.54-8.675,0.927-11.63  l0.772-0.658c3.468-2.956,8.675-2.541,11.63,0.927l47.707,55.974c22.357-4.498,45.95,2.254,62.655,18.959l6.336,6.336l1,1  l6.511,6.511c11.915,11.915,30.079,14.918,45.196,7.473l0.656-0.323c7.434-3.656,16.423-0.594,20.08,6.842  C272.34,113.104,269.229,122.094,261.795,125.75z M225.606,83.997c14.229,0,25.765-11.535,25.765-25.765  s-11.535-25.765-25.765-25.765s-25.765,11.535-25.765,25.765S211.377,83.997,225.606,83.997z" fill="#000000"/>
<g>
</g>
<g>
</g>
<g>
</g>
<g>
</g>
<g>
</g>
<g>
</g>
<g>
</g>
<g>
</g>
<g>
</g>
<g>
</g>
<g>
</g>
<g>
</g>
<g>
</g>
<g>
</g>
<g>
</g>
</svg>
